<svg width="640" height="640" viewBox="0 0 640 640" fill="none" xmlns="http://www.w3.org/2000/svg">
<g clip-path="url(#clip0_2727_2)">
<path d="M320.015 96C311.915 96 303.915 97.4 296.315 100.1L15.8154 201.4C6.31539 204.9 0.0153923 213.9 0.0153923 224C0.0153923 234.1 6.31539 243.1 15.8154 246.6L73.7154 267.5C57.3154 293.3 48.0154 323.8 48.0154 355.9V384C48.0154 412.4 37.2154 441.7 25.7154 464.8C19.2154 477.8 11.8154 490.6 3.21539 502.4C0.0153923 506.7 -0.884608 512.3 0.915392 517.4C2.71539 522.5 6.91539 526.3 12.1154 527.6L76.1154 543.6C80.3154 544.7 84.8154 543.9 88.5154 541.6C92.2154 539.3 94.8154 535.5 95.6154 531.2C104.215 488.4 99.9154 450 93.5154 422.5C90.3154 408.3 86.0154 393.8 80.0154 380.5V355.9C80.0154 325.7 90.2154 297.2 107.915 274.4C120.815 258.9 137.515 246.4 157.115 238.7L314.115 177C322.315 173.8 331.615 177.8 334.815 186C338.015 194.2 334.015 203.5 325.815 206.7L168.815 268.4C156.415 273.3 145.515 280.8 136.615 290L296.215 347.6C303.815 350.3 311.815 351.7 319.915 351.7C328.015 351.7 336.015 350.3 343.615 347.6L624.215 246.6C633.715 243.2 640.015 234.1 640.015 224C640.015 213.9 633.715 204.9 624.215 201.4L343.715 100.1C336.115 97.4 328.115 96 320.015 96ZM128.015 472C128.015 507.3 214.015 544 320.015 544C426.015 544 512.015 507.3 512.015 472L496.715 326.6L354.515 378C343.415 382 331.715 384 320.015 384C308.315 384 296.515 382 285.515 378L143.315 326.6L128.015 472Z" fill="white"/>
</g>
<defs>
<clipPath id="clip0_2727_2">
<rect width="640" height="640" fill="white"/>
</clipPath>
</defs>
</svg>
